<?xml version="1.0" standalone="no"?>
<!DOCTYPE svg PUBLIC "-//W3C//DTD SVG 20010904//EN"
 "http://www.w3.org/TR/2001/REC-SVG-20010904/DTD/svg10.dtd">
<svg version="1.0" xmlns="http://www.w3.org/2000/svg"
 width="382.000000pt" height="382.000000pt" viewBox="0 0 382.000000 382.000000"
 preserveAspectRatio="xMidYMid meet">
<metadata>
Created by potrace 1.11, written by Peter Selinger 2001-2013
</metadata>
<g transform="translate(0.000000,382.000000) scale(0.100000,-0.100000)"
fill="#000000" stroke="none">
<path d="M249 3789 c-4 -9 -7 -18 -5 -20 3 -2 7 -33 10 -69 3 -36 8 -85 11
-110 3 -25 7 -79 10 -120 3 -41 7 -93 10 -115 3 -22 7 -71 10 -110 3 -38 8
-88 10 -110 4 -38 10 -105 20 -225 3 -30 7 -80 10 -110 2 -30 7 -86 11 -125 3
-38 7 -86 9 -105 4 -42 14 -154 20 -230 2 -30 7 -75 9 -100 3 -25 8 -76 11
-115 3 -38 8 -86 10 -105 2 -19 7 -71 10 -115 5 -75 9 -112 20 -225 2 -25 7
-79 10 -120 3 -41 8 -91 10 -110 2 -19 7 -69 10 -110 3 -41 8 -93 10 -115 3
-22 7 -70 10 -105 3 -36 7 -92 10 -125 15 -158 24 -258 30 -340 3 -38 8 -88
10 -110 3 -22 7 -67 10 -100 4 -33 8 -61 10 -63 2 -3 44 -15 92 -28 48 -13
113 -30 143 -39 30 -9 62 -18 70 -20 16 -3 520 -144 865 -240 158 -44 205 -53
225 -46 14 5 61 19 105 31 44 12 134 37 200 55 66 18 291 80 501 138 561 155
534 147 535 171 0 12 2 28 3 36 2 8 7 56 10 105 4 50 9 101 11 115 1 14 6 66
9 115 4 50 9 106 11 125 5 43 13 133 20 220 3 36 8 81 10 100 2 19 7 73 10
120 4 47 8 96 10 110 2 14 6 61 10 105 3 44 8 101 10 128 12 114 15 146 20
217 3 41 8 94 11 117 2 24 6 73 9 110 3 38 7 88 10 113 9 91 15 157 20 220 6
75 12 144 19 215 3 28 8 86 12 130 4 44 8 94 10 110 2 17 6 68 9 115 3 47 8
96 10 110 2 14 7 63 11 110 3 47 8 99 10 115 1 17 5 64 9 105 3 41 7 93 10
115 2 22 7 76 11 120 3 44 8 83 11 88 5 9 177 8 -1695 10 -1506 2 -1645 1
-1653 -14z"/>
</g>
</svg>
